.
..............................Site Info...........................

 -   http://www.scenetime.com  *_*   

Good news ! SceneTime will open sign up on Easter day for one day . Its a good chance to get on on Easter day .

Scenetime .Always on time . friendly online private torrent community ..

     We care to share . Join us on  http://www.scenetime.com 

    Be the first to get new release at  http://www.scenetime.com

        Seed back for speed


...................................NFO:.................................................[img]http://i.imgur.com/pv3qa.jpg[/img]

[b]Death.To.Smoochy.2002.WS.DVDRip.XViD.AC3-ADTRG[/b]

When he is fired for taking payola, the host for a children's television show plots revenge against his replacement, a rhino named Smoochy.  

[url]http://www.imdb.com/title/tt0266452/[/url]

Source -  Death To Smoochy 2002 WS NTSC DVDR iNT-EwDp   Thanks

Complete name                            : Death.To.Smoochy.2002.WS.DVDRip.XViD.AC3-ADTRG.avi
Format                                   : AVI
Format/Info                              : Audio Video Interleave
File size                                : 1.67 GiB
Duration                                 : 1h 49mn
Overall bit rate                         : 2 189 Kbps
Writing library                          : VirtualDub build 34703/release

Video
ID                                       : 0
Format                                   : MPEG-4 Visual
Codec ID                                 : XVID
Duration                                 : 1h 49mn
Bit rate                                 : 1 796 Kbps
Width                                    : 720 pixels
Height                                   : 400 pixels
Display aspect ratio                     : 16:9
Frame rate                               : 23.976 fps
Stream size                              : 1.37 GiB (82%)

Audio
ID                                       : 1
Format                                   : AC-3
Bit rate                                 : 384 Kbps
Channel(s)                               : 6 channels
Channel positions                        : Front: L C R, Side: L R, LFE
Stream size                              : 301 MiB (18%)



Encoder - LiMeY
Good things come in small packages, So feel the wrath of my compression

[img]http://i.imgur.com/iYfSZ.jpg[/img]


[IMG]http://i.imgur.com/2739o.gif?1?8830[/IMG]

Dont fear the Atomic Dragon, Embrace it  :)


Greetz to DragonMaster,cOOkies,Mr Geek,DBratt420,AnimeKing,Cush,NoWoRRiEs Rayne, Mr & Mrs IrNbRu and the rest of the crew

Respect to CM8,Goon,Hope,mSD,InfernO,legend-rg and maybe a few more ;)